<svg width="38" height="38" viewBox="0 0 315 315" fill="none" xmlns="http://www.w3.org/2000/svg">
<path d="M170.488 91.773H144.259V144.215H91.8014V170.436H144.259V222.877H170.488V170.436H222.946V144.215H170.488V91.773ZM157.374 26.2209C84.9819 26.2209 26.229 84.9556 26.229 157.325C26.229 229.695 84.9819 288.429 157.374 288.429C229.766 288.429 288.519 229.695 288.519 157.325C288.519 84.9556 229.766 26.2209 157.374 26.2209ZM157.374 262.209C99.5389 262.209 52.458 215.142 52.458 157.325C52.458 99.5082 99.5389 52.4417 157.374 52.4417C215.209 52.4417 262.29 99.5082 262.29 157.325C262.29 215.142 215.209 262.209 157.374 262.209Z" fill="black"/>
</svg>
