<svg width="32" height="32" viewBox="0 0 326 327" fill="none" xmlns="http://www.w3.org/2000/svg">
<path d="M6 200.484C31.0185 234.394 71.2541 256.388 116.627 256.388C192.504 256.388 254.015 194.877 254.015 119C254.015 72.1636 230.579 30.8008 194.794 6C266.446 21.5991 319.989 85.3699 319.989 161.698C319.989 249.716 248.636 321.069 160.618 321.069C85.9464 321.069 23.2906 269.802 6 200.484Z" fill="#FCEA2B"/>
<path d="M217.434 18.0396C262.772 41.3956 306.432 83.2848 306.432 153.638C306.432 238.54 237.605 307.367 152.703 307.367C101.907 307.367 44.1526 280.795 19.1941 221.947C19.1941 221.947 43.2673 324.476 160.533 324.521C266.746 324.562 314.639 211.193 314.639 211.193C350.403 35.4643 217.434 18.0396 217.434 18.0396Z" fill="#F1B31C"/>
<path d="M6 200.484C31.0185 234.394 71.2541 256.388 116.627 256.388C192.504 256.388 254.015 194.877 254.015 119C254.015 72.1636 230.579 30.8008 194.794 6C266.446 21.5991 319.989 85.3699 319.989 161.698C319.989 249.716 248.636 321.069 160.618 321.069C85.9464 321.069 23.2906 269.802 6 200.484Z" stroke="black" stroke-width="10.9911" stroke-miterlimit="10" stroke-linecap="round" stroke-linejoin="round"/>
</svg>
