<svg width="315" height="315" viewBox="0 0 315 315" fill="none" xmlns="http://www.w3.org/2000/svg">
<path d="M271.601 252.978L227.012 208.52C241.398 190.192 249.204 167.559 249.175 144.259C249.175 123.509 243.022 103.224 231.494 85.9711C219.965 68.7178 203.58 55.2705 184.409 47.3297C165.238 39.3888 144.143 37.3112 123.791 41.3594C103.44 45.4076 84.7454 55.3998 70.0727 70.0726C55.3999 84.7453 45.4077 103.44 41.3595 123.791C37.3113 144.143 39.389 165.238 47.3298 184.409C55.2706 203.58 68.7179 219.965 85.9713 231.494C103.225 243.022 123.509 249.175 144.259 249.175C167.559 249.204 190.192 241.398 208.52 227.012L252.978 271.601C254.198 272.83 255.648 273.806 257.246 274.471C258.844 275.137 260.558 275.48 262.29 275.48C264.021 275.48 265.735 275.137 267.333 274.471C268.931 273.806 270.382 272.83 271.601 271.601C272.83 270.382 273.806 268.931 274.472 267.333C275.137 265.735 275.48 264.021 275.48 262.29C275.48 260.558 275.137 258.844 274.472 257.246C273.806 255.648 272.83 254.197 271.601 252.978ZM65.5725 144.259C65.5725 128.696 70.1874 113.483 78.8336 100.543C87.4799 87.6032 99.7691 77.5177 114.147 71.5621C128.525 65.6064 144.347 64.0482 159.61 67.0843C174.874 70.1205 188.895 77.6147 199.899 88.6192C210.904 99.6238 218.398 113.644 221.434 128.908C224.47 144.172 222.912 159.993 216.957 174.371C211.001 188.75 200.915 201.039 187.975 209.685C175.035 218.331 159.822 222.946 144.259 222.946C123.39 222.946 103.376 214.656 88.6194 199.899C73.8627 185.143 65.5725 165.128 65.5725 144.259Z" fill="#231F20"/>
</svg>
